<?xml version="1.0" encoding="UTF-8"?>
<svg id="d" data-name="Logo IFDD court" xmlns="http://www.w3.org/2000/svg" viewBox="0 0 387.56 298.67">
  <g>
    <g>
      <path d="m78.54,96.33c-2.13.18-4.35.54-6.62,1.05h6.62v-1.05Z" fill="#85c441"/>
      <path d="m211.91,144.85c-1.86-6.45-8.25-24.22-23.55-31.89,3.91,4.29,6.3,10.04,6.3,16.27v42.37c.96-.88,1.88-1.81,2.75-2.79.42-.5.84-1.01,1.23-1.54l1.72-2.27c1.31-1.94,2.46-4.01,3.4-6.19l10.88,5.81c-.78,1.71-1.67,3.39-2.64,5.01l-1.05,1.66c-1.6,2.43-3.42,4.73-5.46,6.88-.65.68-1.31,1.34-1.98,1.98-7.76,7.48-17.71,11.95-28.4,12.66h47.5c.62,0,1.12-.5,1.12-1.12v-4.31c0-.57-.43-1.05-.99-1.11-4.65-.48-8.08-4.34-8.08-10.33v-22.06c-1.24-3.51-2.02-6.38-2.49-8.12-.1-.38-.19-.69-.25-.92Z" fill="#4e4c4d"/>
      <path d="m188.35,112.96c-4.23-4.64-10.25-7.59-17-7.59-8.35,0-16.56,4.65-21.26,11.49,6.9-4.74,15.83-7.48,22.59-7.5,6.04,0,11.23,1.37,15.66,3.6Z" fill="#8cd5f2"/>
      <path d="m263.51,180.66s-.09,0-.13,0c-5.28.11-9.91-.82-13.98-2.54,3.56,3.3,8.3,5.27,13.93,5.27h25.27c.71,0,1.29-.58,1.29-1.29v-14.6c-6.38,7.98-15.92,13.15-26.36,13.15Z" fill="#f28385"/>
      <path d="m214.87,52.77c0-.71-.64-1.29-1.35-1.29h-27.32c-.71,0-1.29.58-1.29,1.29l.07,4.29c0,.66.49,1.2,1.14,1.28.02,0,.03,0,.05,0,.1.04.2.07.32.09.26.03.52.07.77.12,4.15,1.01,7.35,4.69,7.35,9.13v34.64c6.8,3.38,12.86,8.46,17.88,15.23.75,1.01,1.47,2.07,2.16,3.16.07.11.14.23.21.35V52.77Z" fill="#4e4c4d"/>
      <g>
        <path d="m310.16,52.85c0-.71-.58-1.36-1.29-1.36h-27.32c-.71,0-1.29.65-1.29,1.36v3.78c0,.66.49,1.2,1.14,1.28,4.68.56,8.49,4.5,8.49,9.34v37.58s0,0,0,0v-.04c12.03,7.83,19.34,21.69,20.27,35.89V52.85Z" fill="#4e4c4d"/>
        <g>
          <path d="m249.4,178.12c-4.65-4.31-7.31-10.9-7.31-18.36v-30.53c0-5.99,1.77-11.54,4.95-15.78-4.93,2.54-9.17,6.21-12.19,10.73l-3.38,5.06-6.04-3.91c-1.39,3.94-2.33,8.18-2.8,12.65.01.04.02.09.04.13,4.19,15.28,10.57,33.16,26.73,40.01Z" fill="#4e4c4d"/>
          <g>
            <path d="m222.4,140.67c-.04.61-.07,1.22-.09,1.83.02-.61.05-1.22.09-1.83Z" fill="none"/>
            <path d="m222.31,142.5c.02-.61.05-1.22.09-1.83,0-.15.02-.31.03-.46.06-.75.12-1.5.2-2.24-1.98-5.97-4.59-11.84-7.78-16.93h0c-.07-.11-.14-.23-.21-.35-.69-1.09-1.41-2.15-2.16-3.16-5.02-6.76-11.08-11.84-17.88-15.23h0c-.87-.43-1.76-.84-2.65-1.22-6.02-2.54-12.57-3.82-19.44-3.82-1.41,0-2.88.09-4.39.26-3.21.31-6.32.96-9.28,1.9-10.31,3.07-20.88,9.36-26.88,18.53,0,0-1.21,1.82-2.33,3.56l2.59,1.61,7.82,4.85c.65-.99,2.27-3.47,2.27-3.47,1.91-2.92,4.64-5.5,7.78-7.66,4.69-6.84,12.91-11.49,21.26-11.49,6.75,0,12.77,2.94,17,7.59,15.3,7.66,21.69,25.43,23.55,31.89.07.24.15.55.25.92.47,1.73,1.25,4.61,2.49,8.12,1.87,5.27,4.78,11.96,9.27,18.31,9.14,12.93,21.77,19.98,36.68,20.54-25.18-.98-39.24-25.06-38.29-50.23Z" fill="#00aeef"/>
            <g>
              <path d="m293.84,127.84c-1.04-1.86-2.18-3.67-3.51-5.33h0c-.15-.18-.29-.37-.44-.55h0c-.07-.08-.14-.16-.2-.24h0c-.87-1.03-1.81-2.01-2.79-2.94,1.89,3.17,2.99,6.73,2.99,10.45v38.27c.28-.35.55-.7.81-1.06,7.96-10.8,9.83-26.66,3.15-38.61Z" fill="#4e4c4d"/>
              <g>
                <path d="m260.6,192.73c.63.02,1.27.04,1.91.04.36,0,.71,0,1.07-.01,0,0,0,0,0,0h0c-.99-.03-1.99,0-2.98-.03Z" fill="none"/>
                <g>
                  <path d="m318.21,186.26c-4.65-.54-8.05-4.3-8.05-9.14v-28.95s0,0,0,0c-1.22,23.19-21.34,43.94-44.28,44.58,14.22.04,52.2.04,52.2.04.71,0,1.29-.58,1.29-1.29v-3.98c0-.66-.5-1.2-1.15-1.28Z" fill="#4e4c4d"/>
                  <path d="m260.6,192.73s.1,0,.18,0c-.06,0-.12,0-.18,0h0Z" fill="#353635"/>
                  <path d="m310.07,139.39c-1.24-13.74-8.52-27.02-20.17-34.61,0,.16-.01,17.03-.01,17.18h0c.15.18.3.36.44.55h0c1.33,1.67,2.47,3.47,3.51,5.33,6.68,11.95,4.81,27.81-3.15,38.61-.26.36-.53.71-.81,1.06v14.6c0,.71-.58,1.29-1.29,1.29h-25.26c-5.62,0-10.36-1.97-13.93-5.27h0c-16.15-6.85-22.54-24.73-26.73-40.01-.01-.04-.02-.09-.04-.13-.08.75-.15,1.49-.2,2.24-.01.15-.02.31-.03.46-.04.61-.07,1.22-.09,1.83-.95,25.17,13.11,49.25,38.29,50.23,0,0,0,0,0,0h0c.06,0,.12,0,.18,0,.58,0,2.41.02,5.1.03,22.95-.64,43.06-21.39,44.28-44.58,0,0,0,0,0,0v-7.51c-.03-.43-.05-.85-.1-1.27Z" fill="#ee3433"/>
                </g>
              </g>
            </g>
            <path d="m222.43,140.22c-.01.15-.02.31-.03.46.01-.15.02-.31.03-.46Z" fill="#6e6f71"/>
          </g>
        </g>
      </g>
      <g>
        <path d="m247.04,113.45h0c4.96-2.56,10.62-3.98,16.44-3.98,9.02,0,17.25,3.53,23.4,9.3h0c-7.85-13.52-29.8-19.23-39.84-5.32Z" fill="#906cad"/>
        <path d="m289.67,104.63s-.07-.05-.11-.07h0s-.09-.05-.13-.08c0,0,0,0,0,0-13.57-8.96-33.5-9.35-48.12-1.77-6.82,3.52-12.61,8.65-16.74,14.83l-3.38,5.06c2.44,1.58,7.8,5.04,10.28,6.65l3.38-5.06c3.02-4.52,7.26-8.19,12.19-10.73h0c10.04-13.91,31.99-8.2,39.84,5.32h0c.99.93,1.92,1.91,2.79,2.94h0c.07.08.14.16.2.24,0-.09.01-17.08.01-17.18-.07-.05-.15-.1-.22-.15Z" fill="#6f2c91"/>
      </g>
      <path d="m100.5,113.83v2.06c2.86,2.31,5.35,5.03,7.32,8.01l3.38,5.11,2.3-1.5c-3.17-5.04-7.41-10.05-13-13.68Z" fill="#add476"/>
      <path d="m172.33,180.49c-8.78.19-15.79-2.64-21.39-7.18,4.79,6.12,12.54,10.09,20.41,10.09h22.18c.62,0,1.12-.5,1.12-1.12v-10.68c-6.04,5.51-13.82,8.89-22.19,8.89-.04,0-.09,0-.13,0Z" fill="#fff08c"/>
      <path d="m83.03,192.75h6.14-7.36c.41.01.82,0,1.23,0Z" fill="#010101"/>
      <path d="m121.12,144.75c.07.24-.1-.38,0,0h0Z" fill="#010101"/>
      <path d="m132.95,141.51c.08.29-.12-.46,0,0h0Z" fill="#010101"/>
      <g>
        <path d="m121.12,144.75c.07.24-.1-.38,0,0h0Z" fill="none"/>
        <path d="m110.07,108.1h-9.57v5.74c5.58,3.63,9.83,8.64,13,13.68l7.98-5.22c-5.63-9.03-8.32-11.54-11.41-14.2Z" fill="#85c441"/>
      </g>
      <path d="m53.56,75.27h0c0-6.02-4.88-10.9-10.9-10.9s-10.9,4.88-10.9,10.9h0c0,6.02,4.88,10.9,10.9,10.9s10.9-4.88,10.9-10.9Z" fill="#4e4c4d"/>
      <path d="m53.65,183.18v.02s.01,0,.02.01v-.02s-.01,0-.02-.01Z" fill="#3cc4f1"/>
      <path d="m31.71,148.89v41.64c0,1.21.98,2.2,2.2,2.2h17.56c1.21,0,2.2-.98,2.2-2.2v-5.35c-12.23-7.82-20.67-21.02-21.96-36.29Z" fill="#4e4c4d"/>
      <path d="m53.67,104.43v-5.39c0-.98-.79-1.77-1.77-1.77h-27.62c-.98,0-1.77.79-1.77,1.77v3.7c0,.89.66,1.62,1.53,1.75,4.45.71,7.67,5.17,7.67,9.88v26.38c1.28-15.27,9.72-28.5,21.96-36.32Z" fill="#4e4c4d"/>
      <g>
        <path d="m79.93,192.52s.1.05.15.07c-.05-.02-.1-.05-.15-.07Z" fill="none"/>
        <path d="m79.58,192.29s.09.07.14.1c-.05-.03-.09-.07-.14-.1Z" fill="none"/>
        <path d="m79.38,192.14s-.09-.09-.13-.13c.04.04.08.09.13.13Z" fill="none"/>
        <path d="m78.62,190.85c.02.09.04.18.07.27-.03-.09-.05-.18-.07-.27Z" fill="none"/>
        <path d="m78.98,191.68c.04.06.07.11.11.17-.04-.05-.08-.11-.11-.17Z" fill="none"/>
        <path d="m78.77,191.29c.03.07.06.14.1.21-.04-.07-.07-.14-.1-.21Z" fill="none"/>
        <path d="m78.58,190.7c0,.05.03.1.04.15-.01-.05-.03-.1-.04-.15Z" fill="#4e4c4d"/>
        <path d="m78.69,191.11c.02.06.05.12.08.18-.03-.06-.06-.12-.08-.18Z" fill="#4e4c4d"/>
        <path d="m80.32,192.68c-.08-.03-.16-.05-.24-.09.08.03.16.06.24.09Z" fill="#4e4c4d"/>
        <path d="m79.58,192.29c-.07-.05-.13-.1-.19-.15.06.05.13.1.19.15Z" fill="#4e4c4d"/>
        <g>
          <path d="m80.33,192.68s.05.01.09.03c-.03,0-.06-.02-.09-.03Z" fill="none"/>
          <g>
            <path d="m53.04,166.57c.2.23.41.46.62.68v-45.46c-11.37,12.35-10.75,32.07-.62,44.78Z" fill="#4e4c4d"/>
            <g>
              <g>
                <path d="m75.19,107.03s-.05-.04-.07-.06c.03.03.07.06.1.09-.01,0-.02-.02-.03-.03Z" fill="none"/>
                <path d="m76.07,107.9c.27.3.53.63.76.97-.23-.34-.49-.66-.76-.97Z" fill="none"/>
                <path d="m70.09,104.8s.08,0,.13.01c-.04,0-.08,0-.13-.01Z" fill="none"/>
                <path d="m74.49,106.48c-.1-.07-.21-.14-.31-.2.15.1.31.21.45.32-.05-.04-.09-.08-.14-.11Z" fill="none"/>
                <path d="m73.9,106.09s-.07-.04-.11-.06c.06.03.11.06.17.1-.02-.01-.04-.03-.06-.04Z" fill="none"/>
                <path d="m53.67,121.79h0c-11.37,12.35-10.75,32.07-.62,44.78.2.23.41.46.62.68h0c6.61,7.06,15.86,11.85,24.88,13.09h0v-65.97c0-2.03-.63-3.93-1.71-5.5,0,0,0,0,0,0-8.08,1.36-17.61,6.6-23.16,12.93Z" fill="none"/>
                <polygon points="69.14 104.75 69.13 104.75 69.13 104.75 69.14 104.75" fill="none"/>
                <path d="m80.41,192.7c-1.08-.28-1.88-1.33-1.87-2.45,0,.15-.15.3-.12.44,0,.05.03.1.04.15.02.09.04.18.07.27.02.06.05.12.08.18.03.07.06.14.1.21.04.06.08.12.12.18.04.06.07.11.11.17.05.06.1.11.16.17.04.04.08.09.13.13.06.05.13.1.19.15.05.03.09.07.14.1.07.05.15.08.22.12.05.03.1.05.15.07.08.03.16.06.24.09.03,0,.06.02.09.03.07.02.15.04.17.05,0,0,.08,0,.13,0,.01,0,.02,0,.04,0-.02,0-.1-.03-.17-.05Z" fill="none"/>
                <path d="m80.25,192.7s-.06-.02-.09-.03c-.08-.03-.16-.05-.24-.09-.05-.02-.1-.05-.15-.07-.08-.04-.15-.08-.22-.12-.05-.03-.09-.07-.14-.1-.07-.05-.13-.1-.19-.15-.05-.04-.09-.09-.13-.13-.05-.06-.11-.11-.16-.17-.04-.05-.08-.11-.11-.17-.04-.06-.08-.12-.12-.18-.04-.07-.07-.14-.1-.21-.03-.06-.06-.12-.08-.18-.03-.09-.05-.18-.07-.27-.01-.05-.03-.1-.04-.15-.03-.14.12-.29.12-.44v-9.92c-9.02-1.23-18.26-6.03-24.88-13.09h0c-.21-.22-.42-.45-.62-.68-10.13-12.7-10.75-32.43.62-44.78h0c5.55-6.33,15.08-11.57,23.16-12.92,0,0,0,0,0,0-.23-.34-.49-.66-.76-.97,0,0,0,0,0,0-.26-.29-.55-.57-.84-.83-.03-.03-.07-.06-.1-.09-.16-.13-.32-.26-.48-.38-.15-.11-.3-.22-.45-.32-.07-.05-.15-.1-.22-.14-.06-.03-.11-.06-.17-.1-.2-.12-.4-.22-.6-.33-.06-.03-.12-.06-.17-.09-.23-.11-.48-.21-.72-.3-.07-.02-.13-.05-.2-.07-.26-.09-.52-.17-.79-.23-.04,0-.07-.02-.11-.02-.32-.08-.65-.13-.98-.17-.04,0-.08,0-.13-.01-.32-.03-.64-.06-.96-.05,0,0,0,0,0,0h0v-5h0s0,0,0,0v-.55c.02-.27.07-.53.16-.77.08-.19.2-.36.34-.5-20.39,4.21-36.14,21.53-37.92,42.82v8.14c2.07,25.22,23.8,44.48,48.84,43.86-.05,0-.13,0-.13,0-.02,0-.1-.03-.17-.05Z" fill="#85c441"/>
                <path d="m69.14,104.75c.32,0,.64.02.96.05-.31-.03-.63-.05-.96-.05Z" fill="#4e4c4d"/>
                <path d="m112.63,49.54c-18.82,0-34.09,15.47-34.09,33.88v13.97h-7.05s0,0,0,0h-.59c-.5,0-.95.21-1.27.54-.14.14-.25.32-.34.5-.1.24-.15.5-.16.77v.55h0s0,0,0,0v5s0,0,0,0c.32,0,.71.03,1.02.06.04,0-.04,0,0,0,.33.04.77.12,1.09.19.04,0-.04,0,0,0,.27.07.68.19.94.28.07.02-.07-.02,0,0,.24.09.59.23.82.34.06.03.12.06.17.09.2.1.4.21.6.33.04.02.32.19.39.24.1.07.41.28.45.32.16.12.33.25.48.38.02.02.09.08.1.09.3.26.58.54.85.83,0,0,0,0,0,0,.27.3.53.63.76.97,0,0,0,0,0,0,0,0,0,0,0,0,1.08,1.57,1.71,3.47,1.71,5.5v65.97h0v9.92c0,1.12.79,2.17,1.87,2.45.07.02.15.04.17.05-.01,0-.02,0-.04,0,.02,0,.03,0,.03,0,.25.01.66-.02,1.23,0h7.36s8.78,0,8.78,0c1.41,0,2.55-1.09,2.55-2.49v-82.16h23.49c1.23,0,2.24-1,2.24-2.24v-6.34c0-1.18-.96-2.13-2.13-2.13h-23.59v-23.59c0-8.16,6.69-14.85,15.06-14.85,7.55,0,14.16,6.04,14.8,13.64.06.68.63,1.21,1.32,1.21h3.69c.73,0,1.32-.59,1.32-1.32v-13.11c-6.27-5.86-14.64-9.83-24.05-9.83Z" fill="#4e4c4d"/>
              </g>
              <path d="m80.41,192.7c-1.08-.28-1.88-1.33-1.87-2.45v-9.92h0v9.92c0,.15-.15.3-.12.44,0,.05.03.1.04.15.02.09.04.18.07.27.02.06.05.12.08.18.03.07.06.14.1.21.04.06.08.12.12.18.04.06.07.11.11.17.05.06.1.11.16.17.04.04.08.09.13.13.06.05.13.1.19.15.05.03.09.07.14.1.07.05.15.08.22.12.05.03.1.05.15.07.08.03.16.06.24.09.03,0,.06.02.09.03.07.02.15.04.17.05,0,0,.08,0,.13,0,.01,0,.02,0,.04,0-.02,0-.1-.03-.17-.05Z" fill="#85c441"/>
            </g>
          </g>
        </g>
        <path d="m79.71,192.4c.07.05.15.08.22.12-.07-.04-.15-.08-.22-.12Z" fill="#4e4c4d"/>
        <path d="m79.1,191.84c.05.06.1.11.16.17-.05-.06-.11-.11-.16-.17Z" fill="#4e4c4d"/>
      </g>
    </g>
    <g>
      <path d="m31.75,214.75h2.08v12.26h-2.08v-12.26Z" fill="#4e4c4d"/>
      <path d="m37.3,214.75h2.2l5.43,9.03h.03v-9.03h1.98v12.26h-2.2l-5.42-9.02h-.05v9.02h-1.98v-12.26Z" fill="#4e4c4d"/>
      <path d="m51.78,222.92c0,1.89,1.35,2.63,3.02,2.63,1.83,0,2.52-.93,2.52-1.86s-.5-1.32-.98-1.51c-.83-.33-1.92-.55-3.55-1.01-2.03-.57-2.63-1.84-2.63-3.11,0-2.46,2.2-3.61,4.35-3.61,2.48,0,4.57,1.36,4.57,3.92h-2.08c-.1-1.58-1.13-2.16-2.57-2.16-.97,0-2.18.36-2.18,1.6,0,.86.57,1.34,1.42,1.58.18.05,2.82.76,3.43.94,1.57.48,2.32,1.86,2.32,3.13,0,2.75-2.37,3.85-4.73,3.85-2.72,0-4.92-1.34-4.97-4.38h2.08Z" fill="#4e4c4d"/>
      <path d="m61.09,214.75h9.64v1.86h-3.78v10.41h-2.08v-10.41h-3.77v-1.86Z" fill="#4e4c4d"/>
      <path d="m73.11,214.75h2.08v12.26h-2.08v-12.26Z" fill="#4e4c4d"/>
      <path d="m77.61,214.75h9.64v1.86h-3.78v10.41h-2.08v-10.41h-3.77v-1.86Z" fill="#4e4c4d"/>
      <path d="m89.49,214.75h2.08v7.14c0,1.65.1,3.55,2.8,3.55s2.8-1.91,2.8-3.55v-7.14h2.08v7.85c0,3.14-1.95,4.71-4.88,4.71s-4.88-1.56-4.88-4.71v-7.85Z" fill="#4e4c4d"/>
      <path d="m101.53,214.75h9.63v1.86h-3.78v10.41h-2.08v-10.41h-3.77v-1.86Z" fill="#4e4c4d"/>
      <path d="m119.18,214.75h4.93c3.67,0,5.25,2.75,5.25,6.13s-1.58,6.13-5.25,6.13h-4.93v-12.26Zm2.08,10.51h2.05c3.27,0,3.97-1.92,3.97-4.38s-.7-4.38-3.97-4.38h-2.05v8.76Z" fill="#4e4c4d"/>
      <path d="m132.22,214.75h8.57v1.86h-6.48v3.21h6v1.75h-6v3.59h6.6v1.85h-8.68v-12.26Z" fill="#4e4c4d"/>
      <path d="m149.35,214.75h2.08v10.41h6.05v1.85h-8.13v-12.26Z" fill="#4e4c4d"/>
      <path d="m163.11,214.75h2.22l4.58,12.26h-2.23l-1.12-3.25h-4.75l-1.12,3.25h-2.15l4.57-12.26Zm-.73,7.38h3.63l-1.78-5.27h-.05l-1.8,5.27Z" fill="#4e4c4d"/>
      <path d="m177.68,214.75h8.22v1.86h-6.13v3.21h5.38v1.75h-5.38v5.44h-2.08v-12.26Z" fill="#4e4c4d"/>
      <path d="m188.56,214.75h5.68c2.6,0,3.93,1.24,3.93,3.31,0,2.35-1.58,2.95-1.97,3.09v.03c.72.1,1.77.65,1.77,2.59,0,1.43.2,2.73.65,3.23h-2.23c-.32-.53-.32-1.2-.32-1.8,0-2.25-.45-3.25-2.37-3.25h-3.07v5.05h-2.08v-12.26Zm2.08,5.58h3.42c1.32,0,2.03-.67,2.03-1.96,0-1.56-.98-1.87-2.07-1.87h-3.38v3.83Z" fill="#4e4c4d"/>
      <path d="m204.48,214.75h2.22l4.58,12.26h-2.23l-1.12-3.25h-4.75l-1.12,3.25h-2.15l4.57-12.26Zm-.73,7.38h3.63l-1.78-5.27h-.05l-1.8,5.27Z" fill="#4e4c4d"/>
      <path d="m213.33,214.75h2.2l5.43,9.03h.03v-9.03h1.98v12.26h-2.2l-5.42-9.02h-.05v9.02h-1.98v-12.26Z" fill="#4e4c4d"/>
      <path d="m234.49,218.65c-.35-1.41-1.23-2.44-2.97-2.44-2.55,0-3.62,2.32-3.62,4.67s1.07,4.67,3.62,4.67c1.85,0,2.87-1.43,3.03-3.21h2.03c-.17,2.94-2.18,4.96-5.07,4.96-3.57,0-5.7-2.92-5.7-6.42s2.13-6.42,5.7-6.42c2.68.02,4.8,1.55,5.05,4.19h-2.08Z" fill="#4e4c4d"/>
      <path d="m250.26,220.88c0,3.5-2.13,6.42-5.7,6.42s-5.7-2.92-5.7-6.42,2.13-6.42,5.7-6.42,5.7,2.92,5.7,6.42Zm-9.32,0c0,2.35,1.07,4.67,3.62,4.67s3.62-2.32,3.62-4.67-1.07-4.67-3.62-4.67-3.62,2.32-3.62,4.67Z" fill="#4e4c4d"/>
      <path d="m253.16,214.75h5.25c3.4,0,4.05,2.27,4.05,3.8s-.65,3.78-4.05,3.76h-3.17v4.7h-2.08v-12.26Zm2.08,5.8h3.05c.93,0,2.08-.48,2.08-2.03s-.95-2.03-2.05-2.03h-3.08v4.05Z" fill="#4e4c4d"/>
      <path d="m265.23,214.75h2.08v4.88h5.42v-4.88h2.08v12.26h-2.08v-5.53h-5.42v5.53h-2.08v-12.26Z" fill="#4e4c4d"/>
      <path d="m289.08,220.88c0,3.5-2.13,6.42-5.7,6.42s-5.7-2.92-5.7-6.42,2.13-6.42,5.7-6.42,5.7,2.92,5.7,6.42Zm-9.32,0c0,2.35,1.07,4.67,3.62,4.67s3.62-2.32,3.62-4.67-1.07-4.67-3.62-4.67-3.62,2.32-3.62,4.67Z" fill="#4e4c4d"/>
      <path d="m291.9,214.75h2.2l5.43,9.03h.03v-9.03h1.98v12.26h-2.2l-5.42-9.02h-.05v9.02h-1.98v-12.26Z" fill="#4e4c4d"/>
      <path d="m305.02,214.75h2.08v12.26h-2.08v-12.26Z" fill="#4e4c4d"/>
      <path d="m310.66,214.75h8.57v1.86h-6.48v3.21h6v1.75h-6v3.59h6.6v1.85h-8.68v-12.26Z" fill="#4e4c4d"/>
      <path d="m31.75,236.57h5.25c3.4,0,4.05,2.27,4.05,3.8s-.65,3.78-4.05,3.76h-3.17v4.7h-2.08v-12.26Zm2.08,5.8h3.05c.93,0,2.08-.48,2.08-2.03s-.95-2.03-2.05-2.03h-3.08v4.05Z" fill="#4e4c4d"/>
      <path d="m54.68,242.7c0,3.5-2.13,6.42-5.7,6.42s-5.7-2.92-5.7-6.42,2.13-6.42,5.7-6.42,5.7,2.92,5.7,6.42Zm-9.32,0c0,2.35,1.07,4.67,3.62,4.67s3.62-2.32,3.62-4.67-1.07-4.67-3.62-4.67-3.62,2.32-3.62,4.67Z" fill="#4e4c4d"/>
      <path d="m57.5,236.57h2.08v7.14c0,1.65.1,3.55,2.8,3.55s2.8-1.91,2.8-3.55v-7.14h2.08v7.85c0,3.14-1.95,4.71-4.88,4.71s-4.88-1.56-4.88-4.71v-7.85Z" fill="#4e4c4d"/>
      <path d="m70.72,236.57h5.68c2.6,0,3.93,1.24,3.93,3.31,0,2.35-1.58,2.95-1.97,3.09v.03c.72.1,1.77.65,1.77,2.59,0,1.43.2,2.73.65,3.23h-2.23c-.32-.53-.32-1.2-.32-1.8,0-2.25-.45-3.25-2.37-3.25h-3.07v5.05h-2.08v-12.26Zm2.08,5.58h3.42c1.32,0,2.03-.67,2.03-1.96,0-1.56-.98-1.87-2.07-1.87h-3.38v3.83Z" fill="#4e4c4d"/>
      <path d="m89.19,236.57h2.08v10.41h6.05v1.85h-8.13v-12.26Z" fill="#4e4c4d"/>
      <path d="m99.81,236.57h8.57v1.86h-6.48v3.21h6v1.75h-6v3.59h6.6v1.85h-8.68v-12.26Z" fill="#4e4c4d"/>
      <path d="m117.05,236.57h4.93c3.67,0,5.25,2.75,5.25,6.13s-1.58,6.13-5.25,6.13h-4.93v-12.26Zm2.08,10.51h2.05c3.27,0,3.97-1.92,3.97-4.38s-.7-4.38-3.97-4.38h-2.05v8.76Z" fill="#4e4c4d"/>
      <path d="m130.13,236.57h8.57v1.86h-6.48v3.21h6v1.75h-6v3.59h6.6v1.85h-8.68v-12.26Zm4.23-3.67h2.25l-2.37,2.46h-1.38l1.5-2.46Z" fill="#4e4c4d"/>
      <path d="m140.34,236.57h2.17l2.98,9.7h.03l3.05-9.7h2.12l-4.07,12.26h-2.32l-3.97-12.26Z" fill="#4e4c4d"/>
      <path d="m152.92,236.57h8.57v1.86h-6.48v3.21h6v1.75h-6v3.59h6.6v1.85h-8.68v-12.26Z" fill="#4e4c4d"/>
      <path d="m164.47,236.57h2.08v10.41h6.05v1.85h-8.13v-12.26Z" fill="#4e4c4d"/>
      <path d="m185.86,242.7c0,3.5-2.13,6.42-5.7,6.42s-5.7-2.92-5.7-6.42,2.13-6.42,5.7-6.42,5.7,2.92,5.7,6.42Zm-9.32,0c0,2.35,1.07,4.67,3.62,4.67s3.62-2.32,3.62-4.67-1.07-4.67-3.62-4.67-3.62,2.32-3.62,4.67Z" fill="#4e4c4d"/>
      <path d="m188.81,236.57h5.25c3.4,0,4.05,2.27,4.05,3.8s-.65,3.78-4.05,3.76h-3.17v4.7h-2.08v-12.26Zm2.08,5.8h3.05c.93,0,2.08-.48,2.08-2.03s-.95-2.03-2.05-2.03h-3.08v4.05Z" fill="#4e4c4d"/>
      <path d="m200.98,236.57h5.25c3.4,0,4.05,2.27,4.05,3.8s-.65,3.78-4.05,3.76h-3.17v4.7h-2.08v-12.26Zm2.08,5.8h3.05c.93,0,2.08-.48,2.08-2.03s-.95-2.03-2.05-2.03h-3.08v4.05Z" fill="#4e4c4d"/>
      <path d="m213.15,236.57h8.57v1.86h-6.48v3.21h6v1.75h-6v3.59h6.6v1.85h-8.68v-12.26Z" fill="#4e4c4d"/>
      <path d="m224.67,236.57h2.93l3.28,9.6h.03l3.2-9.6h2.9v12.26h-1.98v-9.46h-.03l-3.3,9.46h-1.72l-3.3-9.46h-.03v9.46h-1.98v-12.26Z" fill="#4e4c4d"/>
      <path d="m240.57,236.57h8.57v1.86h-6.48v3.21h6v1.75h-6v3.59h6.6v1.85h-8.68v-12.26Z" fill="#4e4c4d"/>
      <path d="m252.04,236.57h2.2l5.43,9.03h.03v-9.03h1.98v12.26h-2.2l-5.42-9.02h-.05v9.02h-1.98v-12.26Z" fill="#4e4c4d"/>
      <path d="m264.08,236.57h9.64v1.86h-3.78v10.41h-2.08v-10.41h-3.77v-1.86Z" fill="#4e4c4d"/>
      <path d="m281.83,236.57h4.93c3.67,0,5.25,2.75,5.25,6.13s-1.58,6.13-5.25,6.13h-4.93v-12.26Zm2.08,10.51h2.05c3.27,0,3.97-1.92,3.97-4.38s-.7-4.38-3.97-4.38h-2.05v8.76Z" fill="#4e4c4d"/>
      <path d="m294.79,236.57h2.08v7.14c0,1.65.1,3.55,2.8,3.55s2.8-1.91,2.8-3.55v-7.14h2.08v7.85c0,3.14-1.95,4.71-4.88,4.71s-4.88-1.56-4.88-4.71v-7.85Z" fill="#4e4c4d"/>
      <path d="m308.01,236.57h5.68c2.6,0,3.93,1.24,3.93,3.31,0,2.35-1.58,2.95-1.97,3.09v.03c.72.1,1.77.65,1.77,2.59,0,1.43.2,2.73.65,3.23h-2.23c-.32-.53-.32-1.2-.32-1.8,0-2.25-.45-3.25-2.37-3.25h-3.07v5.05h-2.08v-12.26Zm2.08,5.58h3.42c1.32,0,2.03-.67,2.03-1.96,0-1.56-.98-1.87-2.07-1.87h-3.38v3.83Z" fill="#4e4c4d"/>
      <path d="m323.98,236.57h2.22l4.58,12.26h-2.23l-1.12-3.25h-4.75l-1.12,3.25h-2.15l4.57-12.26Zm-.73,7.38h3.63l-1.78-5.27h-.05l-1.8,5.27Z" fill="#4e4c4d"/>
      <path d="m332.96,236.57h5.78c2.13,0,3.53,1,3.53,3.04,0,1.24-.62,2.13-1.7,2.61v.04c1.45.33,2.23,1.49,2.23,3.16,0,1.92-1.3,3.42-4.38,3.42h-5.47v-12.26Zm2.08,5.13h3.4c1,0,1.75-.6,1.75-1.7,0-1.24-.62-1.68-1.75-1.68h-3.4v3.38Zm0,5.38h3.68c1.27,0,2-.7,2-1.94s-.73-1.89-2-1.89h-3.68v3.83Z" fill="#4e4c4d"/>
      <path d="m345.75,236.57h2.08v10.41h6.05v1.85h-8.13v-12.26Z" fill="#4e4c4d"/>
      <path d="m356.37,236.57h8.57v1.86h-6.48v3.21h6v1.75h-6v3.59h6.6v1.85h-8.68v-12.26Z" fill="#4e4c4d"/>
    </g>
  </g>
  <g>
    <path d="m142.97,164.52c-.27-.39-.53-.79-.79-1.18.26.4.52.79.79,1.18Z" fill="none"/>
    <path d="m140.63,160.81c.36.63.74,1.25,1.12,1.86-.38-.61-.76-1.23-1.12-1.86,0,0,0,0,0,0Z" fill="none"/>
    <path d="m144.27,166.31c-.26-.35-.52-.71-.78-1.06.26.36.51.71.78,1.06Z" fill="none"/>
    <path d="m139.61,158.95c.32.61.65,1.21.99,1.81,0,0,0,0,0,0-.34-.6-.67-1.2-1-1.81,0,0,0,0,0,0Z" fill="none"/>
    <path d="m148.77,171.37c-.35-.33-.7-.67-1.04-1.02.34.35.69.68,1.04,1.02Z" fill="none"/>
    <path d="m150.92,173.29c-.56-.45-1.1-.93-1.63-1.41.53.49,1.07.96,1.63,1.41Z" fill="none"/>
    <path d="m147.14,169.72c-.3-.32-.6-.65-.89-.98.29.33.59.66.89.98Z" fill="none"/>
    <path d="m136.22,151.52c-.09-.23-.18-.46-.27-.69.09.23.18.46.27.69Z" fill="none"/>
    <path d="m145.65,168.05c-.28-.33-.55-.67-.82-1.01.27.34.54.68.82,1.01Z" fill="none"/>
    <path d="m132.95,141.51c.08.29-.12-.46,0,0h0Z" fill="none"/>
    <polygon points="132.95 141.5 132.95 141.51 132.95 141.52 132.95 141.51 132.95 141.5" fill="none"/>
    <path d="m133.97,145.04c-.07-.24-.15-.48-.22-.72.07.24.14.48.22.72Z" fill="none"/>
    <path d="m132.95,141.51c-.12-.46.08.29,0,0,0,0,0,0,0,.01.25.93.52,1.87.8,2.81.07.24.14.48.22.72.59,1.92,1.25,3.86,1.99,5.8.09.23.18.46.27.69.38.97.78,1.94,1.2,2.91,0,.01.01.03.02.04.59,1.34,1.23,2.67,1.91,3.98.09.17.17.33.26.5.32.61.65,1.21,1,1.81,0,.02.02.03.03.05.36.63.74,1.25,1.12,1.86.14.22.29.44.43.66.26.4.52.79.79,1.18.17.25.35.49.52.73.26.36.51.71.78,1.06.19.25.37.49.57.73.27.34.54.68.82,1.01.2.23.39.47.59.69.29.33.59.66.89.98.2.21.39.42.59.63.34.35.69.68,1.04,1.02.18.17.35.34.52.5.53.49,1.07.96,1.63,1.41,0,0,0,0,.01.01-2.99-3.82-4.83-8.48-4.83-13.54v-30.53c0-4.5,1.5-8.74,3.99-12.37-3.14,2.16-5.87,4.74-7.78,7.66,0,0-1.62,2.48-2.27,3.47l-7.82-4.85c-1.16,2.47-2.11,5.08-2.84,7.8,1.31,3.15,2.53,6.66,3.56,10.56h0Z" fill="#4e4c4d"/>
    <path d="m147.73,170.35c-.2-.21-.4-.42-.59-.63.2.21.39.42.59.63Z" fill="#ffd400"/>
    <path d="m135.95,150.84c-.74-1.94-1.4-3.88-1.99-5.8.59,1.92,1.25,3.86,1.99,5.8Z" fill="#ffd400"/>
    <path d="m140.63,160.81s-.02-.03-.03-.05c0,.02.02.03.03.05Z" fill="#ffd400"/>
    <path d="m150.94,173.3s0,0,0,0c0,0,0,0-.01-.01,0,0,0,0,.01.01Z" fill="#ffd400"/>
    <path d="m203.76,158.81c-.94,2.18-2.09,4.25-3.4,6.19l-1.72,2.27c-.4.53-.81,1.04-1.23,1.54-.87.98-1.79,1.91-2.75,2.79v10.68c0,.62-.5,1.12-1.12,1.12h-22.18c-7.87,0-15.62-3.97-20.41-10.09,0,0,0,0,0,0,0,0,0,0,0,0,0,0,0,0-.01-.01-.56-.45-1.1-.93-1.63-1.41-.18-.16-.35-.34-.52-.5-.35-.33-.7-.67-1.04-1.02-.2-.21-.4-.42-.59-.63-.3-.32-.6-.65-.89-.98-.2-.23-.4-.46-.59-.69-.28-.33-.55-.67-.82-1.01-.19-.24-.38-.48-.57-.73-.26-.35-.52-.71-.78-1.06-.17-.24-.35-.48-.52-.73-.27-.39-.53-.79-.79-1.18-.14-.22-.29-.44-.43-.66-.38-.61-.76-1.23-1.12-1.86,0,0,0,0,0,0,0-.02-.02-.03-.03-.05,0,0,0,0,0,0-.34-.6-.67-1.2-.99-1.81,0,0,0,0,0,0-1.28-2.41-2.4-4.91-3.39-7.43-.09-.23-.18-.46-.27-.69-.74-1.94-1.4-3.88-1.99-5.8-.07-.24-.15-.48-.22-.72-.28-.94-.55-1.88-.8-2.81,0,0,0,0,0-.01,0,0,0,0,0,0-1.03-3.9-2.24-7.41-3.56-10.56-6.76-16.22-16.12-22.85-16.12-22.85h0s-3.2,0-3.2,0c3.09,2.66,5.79,5.17,11.41,14.2l-1.77,1.15h0s-6.21,4.07-6.21,4.07c3.34,5.11,6.68,12.42,8.97,22.56.96,4.25,2.58,8.63,4.47,12.93,0,.01.64,1.37,1.11,2.3,1.42,3.08,3.1,6.1,5.11,8.77.11.15.23.29.34.44,2.03,2.74,4.34,5.24,6.96,7.36h0c8.29,7.08,18.62,10.77,30.84,10.99.25.03,2.8.01,3.81-.06,10.68-.71,20.64-5.18,28.4-12.66.68-.64,1.34-1.29,1.98-1.98,2.04-2.15,3.85-4.45,5.46-6.88l1.05-1.66c.98-1.62,1.86-3.29,2.64-5.01l-10.88-5.81Z" fill="#ffd400"/>
    <path d="m149.29,171.88c-.18-.16-.35-.34-.52-.5.18.17.35.34.52.5Z" fill="#ffd400"/>
    <path d="m133.75,144.33c-.28-.94-.55-1.88-.8-2.81.25.93.52,1.87.8,2.81Z" fill="#ffd400"/>
    <path d="m146.25,168.74c-.2-.23-.4-.46-.59-.69.2.23.39.47.59.69Z" fill="#ffd400"/>
    <path d="m142.19,163.33c-.14-.22-.29-.44-.43-.66.14.22.29.44.43.66Z" fill="#ffd400"/>
    <path d="m143.49,165.25c-.17-.24-.35-.48-.52-.73.17.25.35.49.52.73Z" fill="#ffd400"/>
    <path d="m144.84,167.04c-.19-.24-.38-.48-.57-.73.19.25.37.49.57.73Z" fill="#ffd400"/>
    <path d="m137.44,154.47s-.01-.03-.02-.04c-.42-.96-.82-1.93-1.2-2.91.99,2.52,2.11,5.01,3.39,7.43-.09-.16-.17-.33-.26-.5-.68-1.31-1.32-2.64-1.91-3.98Z" fill="#ffd400"/>
  </g>
</svg>